<svg id="Capa_1" enable-background="new 0 0 512 512" height="512" viewBox="0 0 512 512" width="512" xmlns="http://www.w3.org/2000/svg"><g><path d="m225.589.414c-12.472-2.921-22.644 10.197-16.715 21.548 17.441 33.394 29.496 62.265 12.404 93.844l-37.4-46.696c-5.69-7.103-16.291-7.501-22.522-1.018-26.462 27.528-70.856 83.731-70.856 150.848 0 99.504 70.608 169.577 162.452 171.265 1.479.415 2.982.59 4.447.551 92.319-2.368 163.101-72.091 163.101-171.816 0-79.761-51.046-184.852-194.911-218.526z" fill="#ffdd4d"/><path d="m420.5 218.94c0 96.656-66.49 165.124-154.64 171.403-1.911.136-8.417.552-10.36.34v-381.825c121.1 40.369 165 136.125 165 210.082z" fill="#fdb334"/><path d="m304.71 228.089c-19.035-24.701-39.261-41.99-40.113-42.713-5.727-4.867-14.173-4.744-19.758.288-.819.738-20.275 18.377-38.382 43.471-25.646 35.542-35.664 67.641-29.773 95.405 6.548 30.861 31.998 53.732 75.644 67.978 5.361 1.748 11.025.321 14.908-3.308 40.773-14.631 64.338-36.985 70.071-66.495 5.388-27.731-5.579-59.568-32.597-94.626z" fill="#fd5d1c"/><path d="m337.31 322.716c-5.73 29.509-29.3 51.858-70.07 66.497-.44.41-.89.78-1.37 1.13h-.01c-3.03 2.22-6.74 3.2-10.36 2.84v-211.371c3.25.14 6.46 1.32 9.1 3.56.85.73 21.08 18.019 40.11 42.718 27.02 35.059 37.98 66.897 32.6 94.626z" fill="#df0d22"/><path d="m223.064 334.812-45-68.997c-3.351-5.138-9.491-7.72-15.506-6.514l-135 26.999c-6.331 1.266-11.142 6.441-11.942 12.848l-15 119.995c-.498 3.985.623 8.003 3.111 11.154l60 75.997c2.901 3.675 7.273 5.706 11.776 5.706 1.681 0 3.379-.283 5.026-.869l87.479-31.131c4.114-1.464 7.386-4.648 8.961-8.721l47.521-122.863c1.74-4.5 1.21-9.563-1.426-13.604z" fill="#193b66"/><path d="m224.49 348.415-47.52 122.865c-1.58 4.07-4.85 7.26-8.96 8.72l-69.02 24.559v-232.551l63.57-12.71c6.01-1.2 12.15 1.38 15.5 6.52l45 68.997c2.64 4.041 3.17 9.1 1.43 13.6z" fill="#112b48"/><path d="m508.706 377.285-80-111.996c-3.46-4.843-9.456-7.183-15.282-5.962l-105 21.999c-4.343.91-8.061 3.697-10.153 7.61l-26 48.641c-2.328 4.355-2.363 9.577-.094 13.963l62.834 121.447c1.063 2.056 2.588 3.837 4.455 5.205l42.166 30.904c6.076 4.453 14.514 3.709 19.716-1.739l106-110.996c4.974-5.206 5.544-13.215 1.358-19.076z" fill="#193b66"/><path d="m507.35 396.363-106 110.996c-2.93 3.07-6.88 4.64-10.86 4.64v-247.87l22.93-4.8c5.83-1.22 11.83 1.12 15.29 5.96l80 111.996c4.18 5.859 3.61 13.869-1.36 19.078z" fill="#112b48"/><path d="m345.5 331.006h-180c-8.284 0-15 6.716-15 14.999v150.995c0 8.284 6.716 14.999 15 14.999h180c8.284 0 15-6.716 15-14.999v-150.995c0-8.283-6.716-14.999-15-14.999z" fill="#193b66"/><path d="m360.5 346.005v150.995c0 8.28-6.72 14.999-15 14.999h-90v-180.993h90c8.28 0 15 6.72 15 14.999z" fill="#112b48"/></g></svg>