<svg width="800" height="600" xmlns="http://www.w3.org/2000/svg">
 <!-- Created with Method Draw - http://github.com/duopixel/Method-Draw/ -->

 <g>
  <title>background</title>
  <rect fill="none" id="canvas_background" height="602" width="802" y="-1" x="-1"/>
  <g display="none" overflow="visible" y="0" x="0" height="100%" width="100%" id="canvasGrid">
   <rect fill="url(#gridpattern)" stroke-width="0" y="0" x="0" height="100%" width="100%"/>
  </g>
 </g>
 <g>
  <title>Layer 1</title>
  <g stroke="null" id="svg_26">
   <path stroke="null" id="svg_17" fill="#c52828" d="m716.64629,374.44917l0,187.5394c-0.03815,11.49407 -9.34788,20.80379 -20.84195,20.83719l-562.60869,0c-11.49407,-0.03339 -20.80379,-9.34312 -20.84195,-20.83719l0,-187.5394l604.29258,0zm0,0"/>
   <path stroke="null" id="svg_18" fill="#f44335" d="m685.3929,374.44917l-0.00476,187.5394c0.25755,11.20792 -8.58956,20.51764 -19.79748,20.83719l-533.43949,0c-11.20791,-0.31955 -20.05024,-9.62927 -19.79269,-20.83719l-0.00955,-187.5394l573.04396,0zm0,0"/>
   <path stroke="null" id="svg_19" fill="#cfd8dc" d="m716.64629,186.91453l0,187.53464l-406.3322,0l0,-208.37659l385.49025,0c11.49407,0.03815 20.80379,9.34788 20.84195,20.84195zm0,0"/>
   <path stroke="null" id="svg_20" fill="#f5f5f5" d="m685.38814,186.91453l0,187.53464l-406.3322,0l0,-208.37659l385.49501,0c11.49407,0.03815 20.80379,9.34788 20.83719,20.84195zm0,0"/>
   <path stroke="null" id="svg_21" fill="#0377bc" d="m310.31409,166.07258l0,208.37659l-197.96038,0l0,-187.53464c0.03815,-11.49407 9.34788,-20.80379 20.84195,-20.84195l177.11844,0zm0,0"/>
   <path stroke="null" id="svg_22" fill="#02a9f4" d="m279.05594,166.07258l0,208.37659l-166.70223,0l0,-187.53464c-0.79647,-10.56405 7.00138,-19.82608 17.54634,-20.84195l149.15589,0zm0,0"/>
   <path stroke="null" id="svg_23" fill="#e6e7e8" d="m211.33628,207.75171l20.92781,41.83175l46.79185,6.69613l-33.86222,32.56018l7.9934,45.9763l-41.85084,-21.70997l-41.8556,21.70997l7.9934,-45.9763l-33.86222,-32.56018l46.79185,-6.69613l20.93257,-41.83175zm0,0"/>
   <path stroke="null" id="svg_24" d="m695.80434,155.65637l-562.60869,0c-17.26495,0 -31.25815,13.9932 -31.25815,31.25815l0,375.07405c0,17.26019 13.9932,31.25339 31.25815,31.25339l562.60869,0c17.26495,0 31.25815,-13.9932 31.25815,-31.25339l0,-375.07405c0,-17.26495 -13.9932,-31.25815 -31.25815,-31.25815zm10.42097,31.25815l0,177.11844l-385.49501,0l0,-187.5394l375.07405,0c5.75657,0 10.42097,4.6644 10.42097,10.42097zm-573.02966,-10.42097l166.69746,0l0,187.5394l-177.11842,0l0,-177.11844c0,-5.75657 4.6644,-10.42097 10.42097,-10.42097zm562.60869,395.91122l-562.60869,0c-5.75657,0 -10.42097,-4.6644 -10.42097,-10.41621l0,-177.11842l583.45062,0l0,177.11842c0,5.75181 -4.6644,10.41621 -10.42097,10.41621zm0,0"/>
   <path stroke="null" id="svg_25" d="m166.26138,292.51693l-7.02045,40.51065c-0.67724,3.89653 0.91571,7.84076 4.1064,10.1825c3.19068,2.33697 7.43537,2.66606 10.95037,0.84894l37.03857,-19.21084l37.05767,19.21084c1.47848,0.77264 3.1239,1.17803 4.79317,1.17803c3.07621,0 5.99503,-1.36403 7.97431,-3.71531c1.97927,-2.35605 2.81867,-5.46564 2.28928,-8.49894l-7.04429,-40.50588l29.87028,-28.72564c2.87113,-2.75668 3.92039,-6.91553 2.69944,-10.70713s-4.49748,-6.55306 -8.44171,-7.11584l-41.39297,-5.91874l-18.42867,-36.9575c-1.96019,-3.28606 -5.5038,-5.29394 -9.32403,-5.29394c-3.825,0 -7.3686,2.00788 -9.32403,5.29394l-18.53836,36.9575l-41.39297,5.92827c-3.94423,0.56278 -7.21599,3.32422 -8.43694,7.11584c-1.22095,3.79162 -0.17646,7.95047 2.69467,10.70713l29.87028,28.71611zm25.62082,-32.67465c3.38145,-0.4817 6.31458,-2.58974 7.84554,-5.64688l11.60853,-23.15984l11.60377,23.20277c1.53096,3.05237 4.46409,5.16518 7.84554,5.64688l25.66374,3.67715l-18.47159,17.76573c-2.49913,2.39897 -3.639,5.89012 -3.04283,9.30019l4.38301,25.25835l-23.18846,-12.02347c-3.00467,-1.56911 -6.58644,-1.56911 -9.58634,0l-23.19322,12.02347l4.38778,-25.25835c0.59616,-3.41007 -0.5437,-6.90122 -3.04283,-9.30019l-18.4716,-17.76573l25.65898,-3.72008zm0,0"/>
  </g>
 </g>
</svg>