<svg width="800" height="600" xmlns="http://www.w3.org/2000/svg">
 <!-- Created with Method Draw - http://github.com/duopixel/Method-Draw/ -->

 <g>
  <title>background</title>
  <rect fill="none" id="canvas_background" height="602" width="802" y="-1" x="-1"/>
  <g display="none" overflow="visible" y="0" x="0" height="100%" width="100%" id="canvasGrid">
   <rect fill="url(#gridpattern)" stroke-width="0" y="0" x="0" height="100%" width="100%"/>
  </g>
 </g>
 <g>
  <title>Layer 1</title>
  <g stroke="null" id="svg_26">
   <path stroke="null" id="svg_17" fill="#c52828" d="m749.3966,338.69906l0,210.03963c-0.04273,12.87308 -10.4694,23.29975 -23.34248,23.33715l-630.10823,0c-12.87308,-0.0374 -23.29975,-10.46407 -23.34248,-23.33715l0,-210.03963l676.7932,0zm0,0"/>
   <path stroke="null" id="svg_18" fill="#f44335" d="m714.39355,338.69906l-0.00533,210.03963c0.28845,12.5526 -9.6201,22.97926 -22.1727,23.33715l-597.43943,0c-12.55258,-0.35788 -22.45578,-10.78455 -22.16734,-23.33715l-0.01069,-210.03963l641.79549,0zm0,0"/>
   <path stroke="null" id="svg_19" fill="#cfd8dc" d="m749.3966,128.66476l0,210.0343l-455.08232,0l0,-233.37678l431.73983,0c12.87308,0.04273 23.29975,10.4694 23.34248,23.34248zm0,0"/>
   <path stroke="null" id="svg_20" fill="#f5f5f5" d="m714.38822,128.66476l0,210.0343l-455.08232,0l0,-233.37678l431.74517,0c12.87308,0.04273 23.29975,10.4694 23.33715,23.34248zm0,0"/>
   <path stroke="null" id="svg_21" fill="#0377bc" d="m294.31428,105.32227l0,233.37678l-221.71088,0l0,-210.0343c0.04273,-12.87308 10.4694,-23.29975 23.34248,-23.34248l198.3684,0zm0,0"/>
   <path stroke="null" id="svg_22" fill="#02a9f4" d="m259.3059,105.32227l0,233.37678l-186.7025,0l0,-210.0343c-0.89203,-11.83148 7.84137,-22.20474 19.65148,-23.34248l167.05101,0zm0,0"/>
   <path stroke="null" id="svg_23" fill="#e6e7e8" d="m183.46151,152.0019l23.43864,46.85056l52.40575,7.4995l-37.92487,36.46663l8.95241,51.49235l-46.87193,-24.31464l-46.87727,24.31464l8.95241,-51.49235l-37.92487,-36.46663l52.40575,-7.4995l23.44397,-46.85056zm0,0"/>
   <path stroke="null" id="svg_24" d="m726.05412,93.65637l-630.10823,0c-19.33633,0 -35.00838,15.67205 -35.00838,35.00838l0,420.07393c0,19.331 15.67205,35.00305 35.00838,35.00305l630.10823,0c19.33633,0 35.00838,-15.67205 35.00838,-35.00305l0,-420.07393c0,-19.33633 -15.67205,-35.00838 -35.00838,-35.00838zm11.67123,35.00838l0,198.3684l-431.74517,0l0,-210.03963l420.07393,0c6.44722,0 11.67123,5.22401 11.67123,11.67123zm-641.77947,-11.67123l186.69715,0l0,210.03963l-198.36839,0l0,-198.3684c0,-6.44722 5.22401,-11.67123 11.67123,-11.67123zm630.10823,443.41107l-630.10823,0c-6.44722,0 -11.67123,-5.22401 -11.67123,-11.6659l0,-198.36839l653.4507,0l0,198.36839c0,6.44189 -5.22401,11.6659 -11.67123,11.6659zm0,0"/>
   <path stroke="null" id="svg_25" d="m132.97871,246.93691l-7.86273,45.37096c-0.75849,4.36402 1.02557,8.78147 4.59907,11.40416c3.57348,2.61735 8.32744,2.98592 12.26415,0.95079l41.48231,-21.51568l41.5037,21.51568c1.65586,0.86534 3.4987,1.31937 5.36824,1.31937c3.44529,0 6.71429,-1.52768 8.93104,-4.16105c2.21673,-2.63872 3.15684,-6.12139 2.56393,-9.51861l-7.88944,-45.36561l33.454,-32.17203c3.2156,-3.08741 4.39074,-7.74523 3.02331,-11.99173s-5.03707,-7.33927 -9.45452,-7.96957l-46.35913,-6.62884l-20.63967,-41.39151c-2.19537,-3.68031 -6.16412,-5.92909 -10.44269,-5.92909c-4.2839,0 -8.25266,2.24878 -10.44269,5.92909l-20.76252,41.39151l-46.35913,6.63952c-4.41745,0.6303 -8.08174,3.72305 -9.44917,7.96957c-1.36743,4.24652 -0.19763,8.90433 3.01796,11.99173l33.454,32.16135zm28.69471,-36.59482c3.78714,-0.53949 7.07218,-2.90045 8.78681,-6.32437l13.00128,-25.93847l12.99595,25.98655c1.71464,3.41858 4.99967,5.78488 8.78681,6.32437l28.74277,4.11832l-20.68774,19.8972c-2.79897,2.68678 -4.07559,6.59679 -3.4079,10.41599l4.90886,28.28874l-25.97052,-13.466c-3.36515,-1.75737 -7.37665,-1.75737 -10.73647,0l-25.97585,13.466l4.91421,-28.28874c0.66769,-3.8192 -0.60893,-7.7292 -3.4079,-10.41599l-20.68775,-19.8972l28.73744,-4.1664zm0,0"/>
  </g>
 </g>
</svg>