<svg height="512pt" viewBox="0 -77 512 512" width="512pt" xmlns="http://www.w3.org/2000/svg"><path d="m503.46875 179.199219v153.601562c-.03125 9.414063-7.65625 17.039063-17.070312 17.066407h-460.796876c-9.414062-.027344-17.039062-7.652344-17.070312-17.066407v-153.601562zm0 0" fill="#c52828"/><path d="m477.871094 179.199219-.003906 153.601562c.210937 9.179688-7.035157 16.804688-16.214844 17.066407h-436.90625c-9.179688-.261719-16.421875-7.886719-16.210938-17.066407l-.007812-153.601562zm0 0" fill="#f44335"/><path d="m503.46875 25.601562v153.597657h-332.800781v-170.667969h315.730469c9.414062.03125 17.039062 7.65625 17.070312 17.070312zm0 0" fill="#cfd8dc"/><path d="m477.867188 25.601562v153.597657h-332.800782v-170.667969h315.734375c9.414063.03125 17.039063 7.65625 17.066407 17.070312zm0 0" fill="#f5f5f5"/><path d="m170.667969 8.53125v170.667969h-162.136719v-153.597657c.03125-9.414062 7.65625-17.039062 17.070312-17.070312zm0 0" fill="#0377bc"/><path d="m145.066406 8.53125v170.667969h-136.535156v-153.597657c-.652344-8.652343 5.734375-16.238281 14.371094-17.070312zm0 0" fill="#02a9f4"/><path d="m89.601562 42.667969 17.140626 34.261719 38.324218 5.484374-27.734375 26.667969 6.546875 37.65625-34.277344-17.78125-34.28125 17.78125 6.546876-37.65625-27.734376-26.667969 38.324219-5.484374zm0 0" fill="#e6e7e8"/><path d="m486.398438 0h-460.796876c-14.140624 0-25.601562 11.460938-25.601562 25.601562v307.199219c0 14.136719 11.460938 25.597657 25.601562 25.597657h460.796876c14.140624 0 25.601562-11.460938 25.601562-25.597657v-307.199219c0-14.140624-11.460938-25.601562-25.601562-25.601562zm8.535156 25.601562v145.066407h-315.734375v-153.601563h307.199219c4.714843 0 8.535156 3.820313 8.535156 8.535156zm-469.332032-8.535156h136.53125v153.601563h-145.066406v-145.066407c0-4.714843 3.820313-8.535156 8.535156-8.535156zm460.796876 324.265625h-460.796876c-4.714843 0-8.535156-3.820312-8.535156-8.53125v-145.066406h477.867188v145.066406c0 4.710938-3.820313 8.53125-8.535156 8.53125zm0 0"/><path d="m52.683594 112.09375-5.75 33.179688c-.554688 3.191406.75 6.421874 3.363281 8.339843 2.613281 1.914063 6.089844 2.183594 8.96875.695313l30.335937-15.734375 30.351563 15.734375c1.210937.632812 2.558594.964844 3.925781.964844 2.519532 0 4.910156-1.117188 6.53125-3.042969 1.621094-1.929688 2.308594-4.476563 1.875-6.960938l-5.769531-33.175781 24.464844-23.527344c2.351562-2.257812 3.210937-5.664062 2.210937-8.769531s-3.683594-5.367187-6.914062-5.828125l-33.902344-4.847656-15.09375-30.269532c-1.605469-2.691406-4.507812-4.335937-7.636719-4.335937-3.132812 0-6.035156 1.644531-7.636719 4.335937l-15.183593 30.269532-33.902344 4.855468c-3.230469.460938-5.910156 2.722657-6.910156 5.828126-1 3.105468-.144531 6.511718 2.207031 8.769531zm20.984375-26.761719c2.769531-.394531 5.171875-2.121093 6.425781-4.625l9.507812-18.96875 9.503907 19.003907c1.253906 2.5 3.65625 4.230468 6.425781 4.625l21.019531 3.011718-15.128906 14.550782c-2.046875 1.964843-2.980469 4.824218-2.492187 7.617187l3.589843 20.6875-18.992187-9.847656c-2.460938-1.285157-5.394532-1.285157-7.851563 0l-18.996093 9.847656 3.59375-20.6875c.488281-2.792969-.445313-5.652344-2.492188-7.617187l-15.128906-14.550782zm0 0"/></svg>