<svg width="800" height="600" xmlns="http://www.w3.org/2000/svg">
 <!-- Created with Method Draw - http://github.com/duopixel/Method-Draw/ -->

 <g>
  <title>background</title>
  <rect fill="none" id="canvas_background" height="602" width="802" y="-1" x="-1"/>
  <g display="none" overflow="visible" y="0" x="0" height="100%" width="100%" id="canvasGrid">
   <rect fill="url(#gridpattern)" stroke-width="0" y="0" x="0" height="100%" width="100%"/>
  </g>
 </g>
 <g>
  <title>Layer 1</title>
  <g stroke="null" id="svg_26">
   <path stroke="null" id="svg_17" fill="#c52828" d="m514.1447,467.94976l0,70.53821c-0.01435,4.3232 -3.51597,7.82482 -7.83917,7.83738l-211.61106,0c-4.3232,-0.01256 -7.82482,-3.51418 -7.83917,-7.83738l0,-70.53821l227.28941,0zm0,0"/>
   <path stroke="null" id="svg_18" fill="#f44335" d="m502.38953,467.94976l-0.00179,70.53821c0.09687,4.21558 -3.23075,7.71719 -7.44632,7.83738l-200.6398,0c-4.21557,-0.12019 -7.54139,-3.62181 -7.44452,-7.83738l-0.00359,-70.53821l215.53603,0zm0,0"/>
   <path stroke="null" id="svg_19" fill="#cfd8dc" d="m514.1447,397.41334l0,70.53642l-152.8316,0l0,-78.3756l144.99243,0c4.3232,0.01435 7.82482,3.51597 7.83917,7.83917zm0,0"/>
   <path stroke="null" id="svg_20" fill="#f5f5f5" d="m502.38773,397.41334l0,70.53642l-152.8316,0l0,-78.3756l144.99422,0c4.3232,0.01435 7.82482,3.51597 7.83738,7.83917zm0,0"/>
   <path stroke="null" id="svg_21" fill="#0377bc" d="m361.3131,389.57417l0,78.3756l-74.4578,0l0,-70.53642c0.01435,-4.3232 3.51597,-7.82482 7.83917,-7.83917l66.61863,0zm0,0"/>
   <path stroke="null" id="svg_22" fill="#02a9f4" d="m349.55613,389.57417l0,78.3756l-62.70084,0l0,-70.53642c-0.29957,-3.9734 2.63339,-7.45708 6.59961,-7.83917l56.10122,0zm0,0"/>
   <path stroke="null" id="svg_23" fill="#e6e7e8" d="m324.08509,405.25072l7.87147,15.73396l17.59957,2.51858l-12.73642,12.24669l3.00651,17.29282l-15.74114,-8.16566l-15.74293,8.16566l3.00651,-17.29282l-12.73642,-12.24669l17.59957,-2.51858l7.87326,-15.73396zm0,0"/>
   <path stroke="null" id="svg_24" d="m506.30553,385.65637l-211.61106,0c-6.49378,0 -11.75697,5.26319 -11.75697,11.75697l0,141.07464c0,6.49198 5.26319,11.75518 11.75697,11.75518l211.61106,0c6.49378,0 11.75697,-5.26319 11.75697,-11.75518l0,-141.07464c0,-6.49378 -5.26319,-11.75697 -11.75697,-11.75697zm3.91958,11.75697l0,66.61863l-144.99422,0l0,-70.53821l141.07464,0c2.16519,0 3.91958,1.7544 3.91958,3.91958zm-215.53065,-3.91958l62.69904,0l0,70.53821l-66.61863,0l0,-66.61863c0,-2.16519 1.7544,-3.91958 3.91958,-3.91958zm211.61106,148.91202l-211.61106,0c-2.16519,0 -3.91958,-1.7544 -3.91958,-3.91779l0,-66.61863l219.45023,0l0,66.61863c0,2.1634 -1.7544,3.91779 -3.91958,3.91779zm0,0"/>
   <path stroke="null" id="svg_25" d="m307.13131,437.13302l-2.64056,15.23706c-0.25472,1.46558 0.34442,2.94911 1.54452,3.82989c1.20009,0.87899 2.79663,1.00277 4.11871,0.31931l13.93112,-7.22567l13.93831,7.22567c0.55609,0.29061 1.17498,0.44309 1.80283,0.44309c1.15704,0 2.25488,-0.51305 2.99934,-1.39742c0.74445,-0.88617 1.06017,-2.05576 0.86105,-3.19666l-2.64953,-15.23526l11.23495,-10.80443c1.0799,-1.03686 1.47456,-2.6011 1.01533,-4.02722s-1.69161,-2.46477 -3.17514,-2.67644l-15.56892,-2.22618l-6.93148,-13.90063c-0.73728,-1.23597 -2.07011,-1.99118 -3.507,-1.99118c-1.43868,0 -2.77151,0.75522 -3.507,1.99118l-6.97274,13.90063l-15.56892,2.22977c-1.48352,0.21168 -2.71411,1.25032 -3.17334,2.67644c-0.45923,1.42612 -0.06637,2.99037 1.01353,4.02722l11.23495,10.80084zm9.63663,-12.28974c1.27185,-0.18118 2.37507,-0.97406 2.9509,-2.12393l4.36626,-8.71099l4.36447,8.72714c0.57583,1.14807 1.67905,1.94275 2.9509,2.12393l9.65277,1.38307l-6.94762,6.68213c-0.93999,0.90231 -1.36872,2.21542 -1.14448,3.49803l1.64856,9.50029l-8.72176,-4.52233c-1.13013,-0.59018 -2.47732,-0.59018 -3.60566,0l-8.72355,4.52233l1.65035,-9.50029c0.22423,-1.28261 -0.2045,-2.59572 -1.14448,-3.49803l-6.94763,-6.68213l9.65098,-1.39921zm0,0"/>
  </g>
 </g>
</svg>