<svg width="200" height="200" xmlns="http://www.w3.org/2000/svg">
 <!-- Created with Method Draw - http://github.com/duopixel/Method-Draw/ -->

 <g>
  <title>background</title>
  <rect fill="#fff" id="canvas_background" height="202" width="202" y="-1" x="-1"/>
  <g display="none" overflow="visible" y="0" x="0" height="100%" width="100%" id="canvasGrid">
   <rect fill="url(#gridpattern)" stroke-width="0" y="0" x="0" height="100%" width="100%"/>
  </g>
 </g>
 <g>
  <title>Layer 1</title>
  <g stroke="null" id="svg_13">
   <path stroke="null" id="svg_4" fill="#c52828" d="m134.19586,103.00001l0,18.03299c-0.00419,1.10522 -1.02702,2.0004 -2.28984,2.00361l-61.81207,0c-1.26282,-0.00321 -2.28565,-0.89839 -2.28984,-2.00361l0,-18.03299l66.39175,0zm0,0"/>
   <path stroke="null" id="svg_5" fill="#f44335" d="m130.76215,103.00001l-0.00052,18.03299c0.0283,1.07771 -0.94371,1.97289 -2.17509,2.00361l-58.60734,0c-1.23138,-0.03073 -2.20286,-0.92591 -2.17456,-2.00361l-0.00105,-18.03299l62.95856,0zm0,0"/>
   <path stroke="null" id="svg_6" fill="#cfd8dc" d="m134.19586,84.96749l0,18.03253l-44.64246,0l0,-20.0366l42.35262,0c1.26282,0.00367 2.28565,0.89885 2.28984,2.00407zm0,0"/>
   <path stroke="null" id="svg_7" fill="#f5f5f5" d="m130.76163,84.96749l0,18.03253l-44.64246,0l0,-20.0366l42.35314,0c1.26282,0.00367 2.28565,0.89885 2.28932,2.00407zm0,0"/>
   <path stroke="null" id="svg_8" fill="#0377bc" d="m89.55341,82.96341l0,20.0366l-21.74929,0l0,-18.03253c0.00419,-1.10522 1.02702,-2.0004 2.28984,-2.00407l19.45945,0zm0,0"/>
   <path stroke="null" id="svg_9" fill="#02a9f4" d="m86.11917,82.96341l0,20.0366l-18.31506,0l0,-18.03253c-0.08751,-1.01579 0.76922,-1.90639 1.92776,-2.00407l16.38729,0zm0,0"/>
   <path stroke="null" id="svg_10" fill="#e6e7e8" d="m78.67903,86.9711l2.29927,4.02236l5.14088,0.64387l-3.72034,3.13085l0.87821,4.42088l-4.59802,-2.08754l-4.59854,2.08754l0.87821,-4.42088l-3.72034,-3.13085l5.14088,-0.64387l2.2998,-4.02236zm0,0"/>
   <path stroke="null" id="svg_11" d="m131.90602,81.96184l-61.81207,0c-1.89685,0 -3.43424,1.34553 -3.43424,3.00565l0,36.06552c0,1.65967 1.53739,3.00519 3.43424,3.00519l61.81207,0c1.89685,0 3.43424,-1.34553 3.43424,-3.00519l0,-36.06552c0,-1.66012 -1.53739,-3.00565 -3.43424,-3.00565zm1.14492,3.00565l0,17.03095l-42.35314,0l0,-18.03299l41.20822,0c0.63246,0 1.14492,0.44851 1.14492,1.00204zm-62.95699,-1.00204l18.31453,0l0,18.03299l-19.45945,0l0,-17.03095c0,-0.55353 0.51246,-1.00204 1.14492,-1.00204zm61.81207,38.06913l-61.81207,0c-0.63246,0 -1.14492,-0.44851 -1.14492,-1.00158l0,-17.03095l64.10191,0l0,17.03095c0,0.55307 -0.51246,1.00158 -1.14492,1.00158zm0,0"/>
   <path stroke="null" id="svg_12" d="m73.72679,95.12176l-0.77131,3.89533c-0.07441,0.37467 0.10061,0.75393 0.45116,0.97911c0.35055,0.22471 0.8169,0.25636 1.20308,0.08163l4.06931,-1.84723l4.07141,1.84723c0.16244,0.07429 0.34321,0.11327 0.52661,0.11327c0.33797,0 0.65866,-0.13116 0.87611,-0.35725c0.21746,-0.22655 0.30968,-0.52555 0.25152,-0.81722l-0.77393,-3.89487l3.28175,-2.76213c0.31544,-0.26507 0.43072,-0.66497 0.29658,-1.02955s-0.49412,-0.63011 -0.92746,-0.68423l-4.54772,-0.56912l-2.0247,-3.55368c-0.21536,-0.31597 -0.60469,-0.50904 -1.0244,-0.50904c-0.42024,0 -0.80957,0.19307 -1.0244,0.50904l-2.03675,3.55368l-4.54772,0.57004c-0.43334,0.05411 -0.7928,0.31964 -0.92694,0.68423c-0.13414,0.36459 -0.01939,0.76448 0.29605,1.02955l3.28175,2.76122zm2.81488,-3.14185c0.37151,-0.04632 0.69376,-0.24902 0.86196,-0.54298l1.27539,-2.22695l1.27487,2.23108c0.1682,0.2935 0.49046,0.49666 0.86196,0.54298l2.8196,0.35358l-2.02942,1.70828c-0.27457,0.23067 -0.39981,0.56637 -0.33431,0.89427l0.48155,2.42873l-2.54764,-1.15613c-0.33011,-0.15088 -0.72363,-0.15088 -1.05322,0l-2.54817,1.15613l0.48207,-2.42873c0.0655,-0.3279 -0.05973,-0.66359 -0.33431,-0.89427l-2.02942,-1.70828l2.81907,-0.35771zm0,0"/>
  </g>
 </g>
</svg>