<svg viewBox="-82 0 512 512" xmlns="http://www.w3.org/2000/svg"><path d="m180.917969 217.558594c-4.257813 1.351562-9.050781 1.40625-13.511719-.019532l-8.695312 6.261719v260.058594h30.96875v-259.980469zm0 0" fill="#e0e0de"/><path d="m179.3125 217.972656c-3.46875.90625-7.8125.871094-11.90625-.433594l-8.695312 6.261719v260.058594h20.601562zm0 0" fill="#d3d3cf"/><path d="m158.710938 374.71875h30.96875v109.136719h-30.96875zm0 0" fill="#d3d3cf"/><path d="m158.710938 374.71875h20.601562v109.136719h-20.601562zm0 0" fill="#c6c6c4"/><path d="m296.402344 481.027344h-244.414063c-8.289062 0-15.066406 6.78125-15.066406 15.070312v.835938c0 8.285156 6.777344 15.066406 15.066406 15.066406h244.414063c8.289062 0 15.066406-6.78125 15.066406-15.066406v-.835938c0-8.289062-6.777344-15.070312-15.066406-15.070312zm0 0" fill="#49ae3a"/><path d="m296.402344 491.394531h-244.414063c-4.511719 0-8.5625-2.015625-11.332031-5.183593-2.316406 2.652343-3.734375 6.105468-3.734375 9.886718v.835938c0 8.285156 6.777344 15.066406 15.066406 15.066406h244.414063c8.285156 0 15.066406-6.78125 15.066406-15.066406v-.835938c0-3.777344-1.417969-7.234375-3.738281-9.886718-2.765625 3.167968-6.816407 5.183593-11.328125 5.183593zm0 0" fill="#1d9942"/><g fill="#b3dbf4"><path d="m180.167969 2.53125c-.25-1.460938-1.515625-2.53125-3-2.53125h-5.800781c-1.527344 0-2.832032 1.101562-3.089844 2.605469l-17.453125 102.152343h46.808593zm0 0"/><path d="m1.097656 292.042969c-1.1406248.945312-1.429687 2.578125-.6875 3.863281l2.898438 5.023438c.765625 1.324218 2.371094 1.902343 3.804687 1.371093l97.191407-35.960937-23.40625-40.535156zm0 0"/><path d="m341.378906 302.5c1.390625.515625 2.949219-.046875 3.691406-1.332031l2.898438-5.023438c.765625-1.324219.464844-3.003906-.710938-3.980469l-79.742187-66.191406-23.402344 40.539063zm0 0"/></g><path d="m190.605469 184.59375 7.027343-79.835938h-46.808593l6.953125 79.839844c8.992187-9.332031 23.84375-9.324218 32.828125-.003906zm0 0" fill="#8fc8e2"/><path d="m180.167969 2.53125c-.25-1.460938-1.515625-2.53125-3-2.53125h-5.800781c-1.527344 0-2.832032 1.101562-3.089844 2.605469l-17.453125 102.152343h20.605469l13.101562-76.6875zm0 0" fill="#8fc8e2"/><path d="m171.429688 104.757812h-20.605469l6.953125 79.84375c5.207031-5.40625 12.636718-7.890624 20.019531-6.714843zm0 0" fill="#6fbdd8"/><path d="m152.90625 192.273438-72.007812 33.53125 23.402343 40.535156 63.105469-44.148438c-12.40625-3.863281-19.265625-17.457031-14.5-29.917968zm0 0" fill="#8fc8e2"/><path d="m89.6875 240.648438 64.1875-29.890626c-2.851562-5.589843-3.359375-12.238281-.96875-18.484374l-72.007812 33.53125 8.640624 14.964843zm0 0" fill="#6fbdd8"/><path d="m89.539062 240.769531-8.640624-14.964843-79.800782 66.238281c-1.1406248.949219-1.429687 2.578125-.6875 3.863281l2.898438 5.023438c.765625 1.324218 2.371094 1.902343 3.804687 1.375l14.96875-5.539063zm0 0" fill="#8fc8e2"/><path d="m195.515625 192.363281c4.726563 12.511719-2.230469 26.039063-14.597656 29.847657l63.195312 44.300781 23.40625-40.535157zm0 0" fill="#8fc8e2"/><path d="m347.257812 292.164062-13.609374-11.296874-80.605469-29.824219-8.929688 15.46875 97.265625 35.988281c1.390625.515625 2.949219-.050781 3.691406-1.332031l2.898438-5.023438c.765625-1.324219.464844-3.003906-.710938-3.980469zm0 0" fill="#8fc8e2"/><path d="m252.878906 250.980469-58.117187-40.738281c-2.726563 5.691406-7.730469 10.085937-13.84375 11.96875l63.195312 44.300781 8.929688-15.46875zm0 0" fill="#6fbdd8"/><path d="m198.492188 200.410156c0 13.550782-10.984376 24.535156-24.535157 24.535156-13.546875 0-24.53125-10.984374-24.53125-24.535156 0-13.546875 10.984375-24.53125 24.53125-24.53125 13.550781 0 24.535157 10.984375 24.535157 24.53125zm0 0" fill="#3b7c93"/><path d="m184.261719 178.148438c-16.226563-7.523438-34.835938 4.363281-34.835938 22.261718 0 17.914063 18.625 29.78125 34.835938 22.265625-18.960938-8.789062-18.925781-35.757812 0-44.527343zm0 0" fill="#2f6780"/></svg>