<svg id="Capa_1" enable-background="new 0 0 412.467 412.467" height="512" viewBox="0 0 412.467 412.467" width="512" xmlns="http://www.w3.org/2000/svg"><g><g><g fill="#27a2db"><path d="m206.234 305.659c-113.892 0-206.234 8.63-206.234 19.256s92.342 19.257 206.234 19.257 206.234-8.63 206.234-19.257c-.001-10.626-92.342-19.256-206.234-19.256"/><path d="m188.174 332.747c-64.852 0-117.184 8.63-117.184 19.257 0 10.626 52.482 19.257 117.184 19.257s117.184-8.63 117.184-19.257-52.48-19.257-117.184-19.257"/><path d="m281.513 338.684c-20.213-.229-40.408 1.273-60.363 4.489-19.506-6.185-58.717-10.426-104.015-10.426-64.853 0-117.135 8.63-117.135 19.256s52.432 19.257 117.134 19.257h2.295c0 7.384 36.318 13.319 81.066 13.319s81.016-5.937 81.016-13.319c0-2.146-3.193-4.191-8.78-5.987h8.78c44.898 0 81.066-5.937 81.066-13.319s-36.268-13.319-81.066-13.319"/></g><path d="m397.35 317.382h-316.833v-289.494h316.833z" fill="#d5d6db"/><path d="m374.402 317.382h-316.832v-289.494h316.832z" fill="#e1e6e9"/><path d="m269.839 70.141c-4.997 5.51-13.516 5.925-19.026.928-.325-.294-.634-.604-.928-.928h-76.278c-5.038 5.51-13.59 5.893-19.099.855-.298-.272-.583-.557-.855-.855h-72.985v247.24h270.587v-247.24z" fill="#3a556a"/><path d="m351.255 317.382h-270.588v-190.418h270.588z" fill="#27a2db"/><path d="m174.105 70.141h-20.803l-41.705 86.355v160.886h41.705v-175.003l1.149-.3z" fill="#d5d6db"/><path d="m174.105 70.141-41.655 86.355v160.886h41.655z" fill="#e1e6e9"/><path d="m80.667 70.141h-20.803l-41.706 86.355v160.886h41.706v-175.003l1.148-.3z" fill="#d5d6db"/><path d="m80.667 70.141-41.656 86.355v160.886h41.656z" fill="#e1e6e9"/><path d="m270.189 70.141h-20.853l-41.656 86.355v160.886h41.656v-175.003l1.147-.3z" fill="#d5d6db"/><path d="m270.189 70.141-41.706 86.355v160.886h41.706z" fill="#e1e6e9"/><path d="m374.402 70.141h-20.853l-41.656 86.355v160.886h41.656v-175.003l1.198-.3z" fill="#d5d6db"/><path d="m374.402 70.141-41.656 86.355v160.886h41.656z" fill="#e1e6e9"/><path d="m80.667 126.964s-50.486 8.131-41.656 196.754h72.436v-154.65l-30.93-42.303" fill="#27a2db"/><path d="m175.154 126.964s-50.486 4.439-41.656 193.262h72.735v-150.959l-30.93-42.305" fill="#27a2db"/><path d="m271.086 126.964s-51.383 9.429-42.603 198.201l73.683-7.782v-148.114z" fill="#27a2db"/><path d="m282.411 142.279 3.292 4.489c1.646-1.297 3.392-2.545 4.989-3.742-2.795-.402-5.61-.652-8.431-.749" fill="#29a3db"/><path d="m263.155 174.106v-.897c1.129-2.541 1.966-5.201 2.495-7.931.243 3.145-.641 6.276-2.495 8.828m18.158-31.827c-4.74-.279-9.437 1.057-13.319 3.792-2.141 1.727-3.85 3.931-4.989 6.435l3.093-7.931h-.599c-2.145 0-3.792 2.345-4.989 4.389-14.568 31.08-14.018 66.798-13.22 101.072-.056-6.638 1.094-13.23 3.392-19.456 1.496 26.307 3.01 52.598 4.539 78.871 2.955-9.873 4.63-20.082 4.989-30.381.537 10.895 2.671 21.653 6.335 31.928 1.856-21.919.018-43.992-5.438-65.302-2.307 3.475-3.633 7.509-3.842 11.673-1.075-19.8.029-39.657 3.292-59.216-.971 12.062.927 24.182 5.538 35.371l3.991-3.742c.104 21.684 2.444 43.301 6.984 64.504l6.735-42.305c-.579 17.094 2.166 34.139 8.081 50.186 1.596-29.933 2.943-61.76-9.977-89.098-3.162 3.839-5.458 8.313-6.735 13.12 1.447-18.358-1.996-37.315 1.147-55.275-.784-5.774.135-11.653 2.643-16.911 1.718-2.908 4.009-5.436 6.735-7.434l-3.292-4.489h-1.097" fill="#29a3db"/><path d="m276.923 181.59c0 2.495-.35 4.989-.499 7.434.391-2.459.558-4.947.499-7.434" fill="#44aedf"/><path d="m278.17 163.33c-.789 2.618-1.405 5.284-1.846 7.981 0 3.492.549 6.984.599 10.476.399-6.086.799-12.173 1.247-18.258" fill="#44aedf"/><path d="m180.79 177.051c0 2.495-.35 4.989-.499 7.434.42-2.456.587-4.947.499-7.434" fill="#58b6e1"/><path d="m93.738 137.738c-1.67-.015-3.338.101-4.989.35l5.488 7.583c2.733-2.689 5.743-5.08 8.98-7.134-3.173-.466-6.372-.733-9.578-.799" fill="#29a3db"/><path d="m75.578 169.567v-.897c1.167-2.53 2.022-5.194 2.545-7.931.257 3.154-.647 6.293-2.545 8.828m13.271-31.479c-3.053.426-5.952 1.608-8.431 3.442-2.116 1.752-3.82 3.949-4.989 6.435l3.342-7.683h-.599c-2.146 0-3.792 2.345-4.989 4.439-14.368 30.73-13.819 66.5-12.971 100.722-.073-6.569 1.059-13.096 3.342-19.257 1.496 26.307 3.01 52.582 4.539 78.821 2.897-9.877 4.491-20.091 4.739-30.381.455 10.957 2.541 21.785 6.185 32.127 1.866-22.017.028-44.192-5.438-65.601-2.285 3.486-3.61 7.513-3.842 11.673-1.059-19.818.062-39.692 3.342-59.266-.941 12.07.99 24.191 5.638 35.371l3.991-3.742c.104 21.684 2.444 43.301 6.984 64.504l6.785-42.205c-.518 16.992 2.225 33.927 8.081 49.887 1.596-29.933 2.943-61.76-9.977-89.098-3.294 3.87-5.695 8.418-7.034 13.319 1.446-18.358-1.996-37.265 1.197-55.225-.827-5.786.075-11.688 2.595-16.961.839-1.43 1.824-2.768 2.943-3.991l-5.488-7.583" fill="#29a3db"/><path d="m89.347 177.051c0 2.495-.35 4.989-.499 7.434.42-2.456.587-4.947.499-7.434" fill="#44aedf"/><path d="m90.596 158.841c-.774 2.551-1.375 5.15-1.796 7.782 0 3.442.499 6.984.549 10.426.398-6.085.847-12.171 1.247-18.208" fill="#44aedf"/><g fill="#31a6dc"><path d="m192.265 130.854c-1.335.119-2.612.602-3.692 1.397l-6.685 4.141v.399l.897-.399-.649.35 5.288 7.184c1.286-.673 2.642-1.207 4.041-1.596-.699 1.496-1.347 2.993-1.946 4.489l3.892 5.338c3.275-5.488 6.908-10.754 10.876-15.764-2.61-1.755-6.021-1.755-8.63 0 .836-2.069-.166-4.425-2.235-5.259-.37-.151-.76-.245-1.157-.28"/><path d="m189.52 146.619c-2.852 7.203-4.536 14.816-4.989 22.549 2.56-5.934 5.527-11.685 8.88-17.211zm-29.583 88.549c-.116-4.021.355-8.037 1.397-11.923-.449 3.941-.849 7.931-1.247 11.923m22.051-98.776c-13.394 7.482-23.173 20.086-27.088 34.921l10.576-9.977c-5.701 6.726-9.917 14.579-12.372 23.048-5.338 18.408-2.145 38.314-6.135 57.071 3.16-7.184 6.235-14.434 9.23-21.75-4.254 27.33-5.025 55.088-2.295 82.613.996-16.461 3.146-32.83 6.435-48.99-3.242 17.161 7.034 34.222 7.882 51.783 2.706-30.665 1.433-61.553-3.792-91.892 2.95-6.108 6.282-12.023 9.977-17.71-1.278 12.927-.504 25.977 2.295 38.663 4.561 23.054 7.578 46.386 9.03 69.842v-79.82c-.583-13.719.523-27.458 3.292-40.907-4.492 1.367-7.72 5.304-8.181 9.977-.537-4.903-1.817-9.698-3.792-14.218-.499-1.197-1.297-2.545-2.593-2.743h-.35c-.912.093-1.77.477-2.445 1.097-4.337 3.257-7.771 7.567-9.977 12.522l9.08-22.449c3.642-9.08 8.331-19.157 16.662-23.546zm0-.4-4.989 3.043 4.989-2.643z"/><path d="m283.458 319.327-48.94 4.989c-1.846.749-3.692 1.447-5.588 2.046-4.852 1.464-9.898 2.188-14.966 2.146-11.071-.377-22.051-2.154-32.676-5.288l4.339 1.197c-7.284 0-14.568.35-21.85.35-17.461 0-34.921-.699-52.332-2.195v1.147h-26.587c-2.219 2.138-2.394 5.633-.399 7.981 1.191.863 2.58 1.413 4.041 1.596 9.13-.399 18.707-.599 28.535-.599 12.372 0 24.345.35 35.519.897 11.225-.549 23.148-.897 35.519-.897 28.385-.27 56.746 1.749 84.808 6.037h8.331c12.123 0 23.596.449 33.923 1.247-.001-.693-.103-1.382-.3-2.046-.269-1.04-.884-1.955-1.746-2.593-.903-.488-1.918-.728-2.943-.699-3.326-.2-6.651-.3-9.977-.3-8.359-.003-16.703.698-24.944 2.096-1.046.078-2.097.078-3.143 0-2.943 0-5.887-.847-6.335-3.542-.449-2.693 2.943-4.989 5.937-5.987 4.555-1.101 9.234-1.605 13.919-1.496h6.585 6.585c6.526.32 13.035-.893 19.007-3.542-.947-2.395-4.141-2.793-6.685-2.793h-28.237"/><path d="m188.174 332.747c-12.372 0-24.295.35-35.519.897l11.823.749h11.175c10.31 0 20.619.482 30.93 1.447 7.533.749 14.966 1.696 22.649 1.696 3.692.018 7.379-.266 11.026-.847.598-.048 1.198-.048 1.796 0 1.138-.01 2.198.577 2.793 1.546.539.655.96 1.397 1.247 2.195 8.331-.649 17.461-1.097 27.088-1.247-28.062-4.288-56.422-6.306-84.808-6.036"/><path d="m281.513 338.684h-8.331c-9.628 0-18.757.599-27.088 1.247 1.389 4.828-.217 10.02-4.091 13.22-4.717 3.394-10.353 5.273-16.164 5.388-5.588.499-11.224.599-16.812.599h-9.977c-9.901-.307-19.801.598-29.483 2.693-2.046.222-3.881 1.358-4.989 3.093-.499 1.214-.499 2.577 0 3.792 2.145 4.989 8.93 6.285 14.568 6.485 8.231.35 16.412.499 24.645.499 17.361 0 34.672-.715 51.932-2.146 2.748-.04 5.447-.723 7.882-1.996 3.792-2.682 5.727-7.288 4.989-11.873-.399-3.642-1.696-7.832.749-10.526.965-.965 2.17-1.655 3.492-1.996 1.62-.473 3.301-.709 4.989-.699 3.95.179 7.859.884 11.623 2.096 3.933 1.32 8.028 2.093 12.172 2.295 1.53.018 3.057-.167 4.539-.549 4.964-1.145 8.628-5.353 9.08-10.426-10.327-.799-21.8-1.247-33.923-1.247m-164.38-5.936c-9.977 0-19.406 0-28.535.599 7.87 1.692 15.897 2.545 23.946 2.545h4.689l-52.582 4.241c-2.978-.006-5.909.733-8.531 2.145-2.651 1.538-3.774 4.784-2.643 7.633 1.877 2.344 4.865 3.505 7.832 3.043h.947l31.479-.847 100.123-2.743c.676-.001 1.348-.103 1.996-.3 2.943-1.147 2.195-5.787 0-7.882-3.818-2.636-8.459-3.805-13.07-3.292h-.749-36.466c.25-1.946 2.743-2.593 4.689-2.743 4.989-.35 9.628-.599 14.418-.799l-11.823-.749c-11.175-.549-23.148-.897-35.519-.897"/><path d="m92.839 320.974c-2.181-.092-4.348.389-6.285 1.397-.64.366-1.214.839-1.696 1.397h26.59v-1.147c-4.689-.399-9.379-.849-14.018-1.347-1.546 0-3.143-.3-4.739-.3"/><path d="m262.256 319.228c-6.332-.239-12.666.433-18.807 1.996-3.037.927-6.018 2.027-8.93 3.292l48.94-4.989h-17.91-3.292"/></g></g></g></svg>